<svg width="144" height="99" viewBox="0 0 144 99" fill="none" xmlns="http://www.w3.org/2000/svg">
<path d="M3.78638 61.5L1.67438 28.62V27.9H7.00238L7.67438 42.828H8.29838L10.0744 27.9H14.2504L16.0264 42.828H16.6504L17.3224 27.9H22.6504V28.62L20.5864 61.5H13.3384L12.5704 49.5H11.8024L10.9864 61.5H3.78638ZM32.1323 61.98C30.5963 61.98 29.2523 61.612 28.1003 60.876C26.9803 60.108 26.1163 59.1 25.5083 57.852C24.9003 56.572 24.5963 55.148 24.5963 53.58V48.876C24.5963 47.34 24.9643 45.932 25.7003 44.652C26.4683 43.372 27.4923 42.364 28.7723 41.628C30.0523 40.86 31.4603 40.476 32.9963 40.476H34.2923V34.332C34.2923 33.98 34.1643 33.692 33.9083 33.468C33.6523 33.212 33.3483 33.084 32.9963 33.084C32.6763 33.084 32.3883 33.212 32.1323 33.468C31.8763 33.692 31.7483 33.98 31.7483 34.332V39.228H24.5963V35.82C24.5963 34.252 24.9643 32.844 25.7003 31.596C26.4683 30.316 27.4923 29.308 28.7723 28.572C30.0523 27.804 31.4603 27.42 32.9963 27.42C34.5643 27.42 35.9723 27.804 37.2203 28.572C38.5003 29.308 39.5083 30.316 40.2443 31.596C41.0123 32.844 41.3963 34.252 41.3963 35.82V61.5H36.3563V59.82H35.8763C35.5563 60.524 35.0283 61.068 34.2923 61.452C33.5563 61.804 32.8363 61.98 32.1323 61.98ZM32.9963 55.308C33.3483 55.308 33.6523 55.196 33.9083 54.972C34.1643 54.716 34.2923 54.412 34.2923 54.06V47.196H32.9963C32.6763 47.196 32.3883 47.324 32.1323 47.58C31.8763 47.804 31.7483 48.092 31.7483 48.444V54.06C31.7483 54.412 31.8763 54.716 32.1323 54.972C32.3883 55.196 32.6763 55.308 32.9963 55.308ZM47.3906 61.5V34.14H42.8306V27.9H59.1506V34.14H54.5906V61.5H47.3906ZM69.2363 61.98C67.7003 61.98 66.2923 61.612 65.0123 60.876C63.7323 60.108 62.7083 59.1 61.9403 57.852C61.2043 56.572 60.8363 55.148 60.8363 53.58V35.82C60.8363 34.252 61.2043 32.844 61.9403 31.596C62.7083 30.316 63.7323 29.308 65.0123 28.572C66.2923 27.804 67.7003 27.42 69.2363 27.42C70.8043 27.42 72.2123 27.804 73.4603 28.572C74.7403 29.308 75.7483 30.316 76.4843 31.596C77.2523 32.844 77.6363 34.252 77.6363 35.82V41.1H70.5323V35.388C70.5323 35.036 70.4043 34.748 70.1483 34.524C69.8923 34.268 69.5883 34.14 69.2363 34.14C68.9163 34.14 68.6283 34.268 68.3723 34.524C68.1163 34.748 67.9883 35.036 67.9883 35.388V54.06C67.9883 54.38 68.1163 54.668 68.3723 54.924C68.6283 55.18 68.9163 55.308 69.2363 55.308C69.5883 55.308 69.8923 55.18 70.1483 54.924C70.4043 54.668 70.5323 54.38 70.5323 54.06V48.3H77.6363V53.58C77.6363 55.148 77.2523 56.572 76.4843 57.852C75.7483 59.1 74.7403 60.108 73.4603 60.876C72.2123 61.612 70.8043 61.98 69.2363 61.98ZM80.2838 61.5V27.9H87.4358V41.1H89.9798V27.9H97.0838V61.5H89.9798V48.3H87.4358V61.5H80.2838ZM99.9713 26.46V24.348H107.219V26.46H99.9713ZM99.9713 61.5V27.9H107.219V61.5H99.9713ZM110.096 61.5V27.9H123.536V35.1H117.248V41.1H121.424V48.3H117.248V61.5H110.096ZM130.319 61.5V46.572L125.471 28.62V27.9H132.623L133.583 40.38H134.207L135.167 27.9H142.271V28.62L137.471 46.572V61.5H130.319Z" fill="white"/>
<path d="M1.15909 80.5V71.7727H3.97585C4.59517 71.7727 5.11222 71.892 5.52699 72.1307C5.9446 72.3665 6.25852 72.6875 6.46875 73.0938C6.68182 73.5 6.78835 73.9574 6.78835 74.4659C6.78835 74.9744 6.68324 75.4332 6.47301 75.8423C6.26278 76.2486 5.95028 76.571 5.53551 76.8097C5.12074 77.0455 4.60511 77.1634 3.98864 77.1634H1.77273V76.4474H3.96733C4.42472 76.4474 4.80398 76.3622 5.10511 76.1918C5.40625 76.0185 5.63068 75.7827 5.77841 75.4844C5.92898 75.1861 6.00426 74.8466 6.00426 74.4659C6.00426 74.0852 5.92898 73.7457 5.77841 73.4474C5.63068 73.1491 5.40483 72.9148 5.10085 72.7443C4.79972 72.5739 4.41761 72.4886 3.95455 72.4886H1.95597V80.5H1.15909ZM10.9751 80.6364C10.4098 80.6364 9.9098 80.4929 9.47514 80.206C9.04332 79.919 8.70526 79.5227 8.46094 79.017C8.21662 78.5085 8.09446 77.9219 8.09446 77.2571C8.09446 76.5866 8.21662 75.9972 8.46094 75.4886C8.70526 74.9773 9.04332 74.5795 9.47514 74.2955C9.9098 74.0085 10.4098 73.8651 10.9751 73.8651C11.5405 73.8651 12.0391 74.0085 12.4709 74.2955C12.9027 74.5824 13.2408 74.9801 13.4851 75.4886C13.7322 75.9972 13.8558 76.5866 13.8558 77.2571C13.8558 77.9219 13.7337 78.5085 13.4893 79.017C13.245 79.5227 12.9055 79.919 12.4709 80.206C12.0391 80.4929 11.5405 80.6364 10.9751 80.6364ZM10.9751 79.9418C11.4297 79.9418 11.8146 79.8196 12.13 79.5753C12.4453 79.331 12.6839 79.0057 12.8459 78.5994C13.0107 78.1932 13.093 77.7457 13.093 77.2571C13.093 76.7685 13.0107 76.3196 12.8459 75.9105C12.6839 75.5014 12.4453 75.1733 12.13 74.9261C11.8146 74.679 11.4297 74.5554 10.9751 74.5554C10.5234 74.5554 10.1385 74.679 9.82031 74.9261C9.50497 75.1733 9.26491 75.5014 9.10014 75.9105C8.93821 76.3196 8.85724 76.7685 8.85724 77.2571C8.85724 77.7457 8.93821 78.1932 9.10014 78.5994C9.26491 79.0057 9.50497 79.331 9.82031 79.5753C10.1357 79.8196 10.5206 79.9418 10.9751 79.9418ZM16.7514 80.5L14.7741 73.9545H15.5753L17.1264 79.3537H17.1818L18.7287 73.9545H19.5341L21.0682 79.3409H21.1278L22.679 73.9545H23.4801L21.5028 80.5H20.7188L19.1676 75.1349H19.0866L17.5355 80.5H16.7514ZM27.3782 80.6364C26.7674 80.6364 26.239 80.4943 25.793 80.2102C25.3469 79.9233 25.0018 79.527 24.7575 79.0213C24.516 78.5128 24.3952 77.9276 24.3952 77.2656C24.3952 76.6065 24.516 76.0213 24.7575 75.5099C25.0018 74.9957 25.3384 74.5937 25.7674 74.304C26.1992 74.0114 26.6978 73.8651 27.2631 73.8651C27.6183 73.8651 27.9606 73.9304 28.2901 74.0611C28.6197 74.1889 28.9151 74.3864 29.1765 74.6534C29.4407 74.9176 29.6495 75.2514 29.8029 75.6548C29.9563 76.0554 30.033 76.5298 30.033 77.0781V77.4531H24.9194V76.7841H29.2575C29.2575 76.3636 29.1722 75.9858 29.0018 75.6506C28.8342 75.3125 28.5998 75.0455 28.2987 74.8494C28.0004 74.6534 27.6552 74.5554 27.2631 74.5554C26.8484 74.5554 26.4833 74.6662 26.168 74.8878C25.8526 75.1094 25.6055 75.402 25.4265 75.7656C25.2504 76.1293 25.1609 76.527 25.158 76.9588V77.3594C25.158 77.8793 25.2475 78.3338 25.4265 78.723C25.6083 79.1094 25.8654 79.4091 26.1978 79.6222C26.5302 79.8352 26.9237 79.9418 27.3782 79.9418C27.6879 79.9418 27.9592 79.8935 28.1921 79.7969C28.4279 79.7003 28.6254 79.571 28.7844 79.4091C28.9464 79.2443 29.0685 79.0639 29.1509 78.8679L29.8711 79.1023C29.7717 79.3778 29.6083 79.6321 29.381 79.8651C29.1566 80.098 28.8754 80.2855 28.5373 80.4276C28.2021 80.5668 27.8157 80.6364 27.3782 80.6364ZM31.7045 80.5V73.9545H32.4418V74.9602H32.4972C32.6278 74.6307 32.8551 74.3651 33.179 74.1634C33.5057 73.9588 33.875 73.8565 34.2869 73.8565C34.3494 73.8565 34.419 73.858 34.4957 73.8608C34.5724 73.8636 34.6364 73.8665 34.6875 73.8693V74.6406C34.6534 74.6349 34.5938 74.6264 34.5085 74.6151C34.4233 74.6037 34.331 74.598 34.2315 74.598C33.8906 74.598 33.5866 74.6705 33.3196 74.8153C33.0554 74.9574 32.8466 75.1548 32.6932 75.4077C32.5398 75.6605 32.4631 75.9489 32.4631 76.2727V80.5H31.7045ZM38.429 80.6364C37.8182 80.6364 37.2898 80.4943 36.8438 80.2102C36.3977 79.9233 36.0526 79.527 35.8082 79.0213C35.5668 78.5128 35.446 77.9276 35.446 77.2656C35.446 76.6065 35.5668 76.0213 35.8082 75.5099C36.0526 74.9957 36.3892 74.5937 36.8182 74.304C37.25 74.0114 37.7486 73.8651 38.3139 73.8651C38.669 73.8651 39.0114 73.9304 39.3409 74.0611C39.6705 74.1889 39.9659 74.3864 40.2273 74.6534C40.4915 74.9176 40.7003 75.2514 40.8537 75.6548C41.0071 76.0554 41.0838 76.5298 41.0838 77.0781V77.4531H35.9702V76.7841H40.3082C40.3082 76.3636 40.223 75.9858 40.0526 75.6506C39.8849 75.3125 39.6506 75.0455 39.3494 74.8494C39.0511 74.6534 38.706 74.5554 38.3139 74.5554C37.8991 74.5554 37.5341 74.6662 37.2188 74.8878C36.9034 75.1094 36.6563 75.402 36.4773 75.7656C36.3011 76.1293 36.2116 76.527 36.2088 76.9588V77.3594C36.2088 77.8793 36.2983 78.3338 36.4773 78.723C36.6591 79.1094 36.9162 79.4091 37.2486 79.6222C37.581 79.8352 37.9744 79.9418 38.429 79.9418C38.7386 79.9418 39.0099 79.8935 39.2429 79.7969C39.4787 79.7003 39.6761 79.571 39.8352 79.4091C39.9972 79.2443 40.1193 79.0639 40.2017 78.8679L40.9219 79.1023C40.8224 79.3778 40.6591 79.6321 40.4318 79.8651C40.2074 80.098 39.9261 80.2855 39.5881 80.4276C39.2528 80.5668 38.8665 80.6364 38.429 80.6364ZM45.1119 80.6364C44.5749 80.6364 44.1048 80.4943 43.7013 80.2102C43.2979 79.9261 42.9826 79.5298 42.7553 79.0213C42.5309 78.5128 42.4187 77.9205 42.4187 77.2443C42.4187 76.571 42.5309 75.9815 42.7553 75.4759C42.9826 74.9673 43.2994 74.5724 43.7056 74.2912C44.1119 74.0071 44.5849 73.8651 45.1246 73.8651C45.5224 73.8651 45.8533 73.9361 46.1175 74.0781C46.3817 74.2173 46.5934 74.3906 46.7525 74.598C46.9116 74.8054 47.0352 75.0071 47.1232 75.2031H47.1914V71.7727H47.9542V80.5H47.2127V79.2855H47.1232C47.0352 79.4844 46.9102 79.6889 46.7482 79.8991C46.5863 80.1065 46.3718 80.2812 46.1048 80.4233C45.8406 80.5653 45.5096 80.6364 45.1119 80.6364ZM45.2013 79.9418C45.6246 79.9418 45.9854 79.8267 46.2837 79.5966C46.582 79.3636 46.8093 79.044 46.9656 78.6378C47.1246 78.2287 47.2042 77.7599 47.2042 77.2315C47.2042 76.7088 47.1261 76.2472 46.9698 75.8466C46.8136 75.4432 46.5863 75.1278 46.288 74.9006C45.9897 74.6705 45.6275 74.5554 45.2013 74.5554C44.7638 74.5554 44.3945 74.6747 44.0934 74.9134C43.7951 75.1491 43.5678 75.4687 43.4116 75.8722C43.2582 76.2756 43.1815 76.7287 43.1815 77.2315C43.1815 77.7401 43.2596 78.1989 43.4158 78.608C43.5721 79.017 43.7994 79.3423 44.0977 79.5838C44.3988 79.8224 44.7667 79.9418 45.2013 79.9418ZM53.6474 80.5V71.7727H54.4102V75.2031H54.4783C54.5636 75.0071 54.6857 74.8054 54.8448 74.598C55.0067 74.3906 55.2184 74.2173 55.4798 74.0781C55.744 73.9361 56.0763 73.8651 56.4769 73.8651C57.0138 73.8651 57.4854 74.0071 57.8917 74.2912C58.2979 74.5724 58.6147 74.9673 58.842 75.4759C59.0692 75.9815 59.1829 76.571 59.1829 77.2443C59.1829 77.9205 59.0692 78.5128 58.842 79.0213C58.6175 79.5298 58.3022 79.9261 57.896 80.2102C57.4925 80.4943 57.0238 80.6364 56.4897 80.6364C56.092 80.6364 55.7596 80.5653 55.4925 80.4233C55.2283 80.2812 55.0153 80.1065 54.8533 79.8991C54.6914 79.6889 54.5664 79.4844 54.4783 79.2855H54.3846V80.5H53.6474ZM54.3974 77.2315C54.3974 77.7599 54.4755 78.2287 54.6317 78.6378C54.7908 79.044 55.0181 79.3636 55.3136 79.5966C55.6119 79.8267 55.9727 79.9418 56.396 79.9418C56.8306 79.9418 57.1985 79.8224 57.4996 79.5838C57.8008 79.3423 58.0295 79.017 58.1857 78.608C58.342 78.1989 58.4201 77.7401 58.4201 77.2315C58.4201 76.7287 58.342 76.2756 58.1857 75.8722C58.0323 75.4687 57.805 75.1491 57.5039 74.9134C57.2028 74.6747 56.8335 74.5554 56.396 74.5554C55.9698 74.5554 55.6076 74.6705 55.3093 74.9006C55.0138 75.1278 54.788 75.4432 54.6317 75.8466C54.4755 76.2472 54.3974 76.7088 54.3974 77.2315ZM61.1431 82.9545C60.9925 82.9545 60.8519 82.9403 60.7212 82.9119C60.5906 82.8835 60.4869 82.8523 60.4102 82.8182L60.6147 82.1491C60.8732 82.2287 61.1033 82.2571 61.305 82.2344C61.5067 82.2145 61.6857 82.1236 61.842 81.9616C61.9982 81.8026 62.1374 81.5582 62.2596 81.2287L62.4982 80.5639L60.0906 73.9545H60.913L62.8562 79.4986H62.9158L64.859 73.9545H65.6815L62.9116 81.5355C62.7951 81.8509 62.6516 82.1136 62.4812 82.3239C62.3107 82.5369 62.1133 82.6946 61.8888 82.7969C61.6673 82.902 61.4187 82.9545 61.1431 82.9545ZM 71.6154 72.9062 V 71.7727 H 78.3694 V 72.9062 H 75.6464 V 80.5 H 74.3344 V 72.9062 H 71.6154 ZM 79.8624 71.7727 H 81.4604 L 84.2384 78.5568 H 84.3404 L 87.1194 71.7727 H 88.7174 V 80.5 H 87.4644 V 74.1847 H 87.3834 L 84.8094 80.4872 H 83.7694 L 81.1954 74.1804 H 81.1144 V 80.5 H 79.8624 V 71.7727 ZM 93.4564 80.5 H 90.6314 V 71.7727 H 93.5464 C 94.4014 71.7727 95.1354 71.9474 95.7494 72.2969 C 96.3634 72.6435 96.8334 73.142 97.1604 73.7926 C 97.4894 74.4403 97.6544 75.2173 97.6544 76.1236 C 97.6544 77.0327 97.4884 77.8139 97.1554 78.4673 C 96.8264 79.1207 96.3484 79.6236 95.7234 79.9759 C 95.0984 80.3253 94.3434 80.5 93.4564 80.5 ZM 91.9484 79.3494 H 93.3844 C 94.0494 79.3494 94.6014 79.2244 95.0424 78.9744 C 95.4824 78.7216 95.8124 78.3565 96.0304 77.8793 C 96.2494 77.3991 96.3584 76.8139 96.3584 76.1236 C 96.3584 75.4389 96.2494 74.858 96.0304 74.3807 C 95.8144 73.9034 95.4924 73.5412 95.0634 73.294 C 94.6344 73.0469 94.1014 72.9233 93.4654 72.9233 H 91.9484 V 79.3494 ZM 99.2914 80.5 V 71.7727 H 102.4874 C 103.1074 71.7727 103.6194 71.875 104.0264 72.0795 C 104.4324 72.2812 104.7364 72.5554 104.9384 72.902 C 105.1394 73.2457 105.2404 73.6335 105.2404 74.0653 C 105.2404 74.429 105.1734 74.7358 105.0404 74.9858 C 104.9064 75.233 104.7274 75.4318 104.5034 75.5824 C 104.2814 75.7301 104.0374 75.8381 103.7704 75.9062 V 75.9915 C 104.0604 76.0057 104.3424 76.0994 104.6184 76.2727 C 104.8964 76.4432 105.1274 76.6861 105.3084 77.0014 C 105.4904 77.3168 105.5814 77.7003 105.5814 78.152 C 105.5814 78.598 105.4764 78.9986 105.2664 79.3537 C 105.0584 79.706 104.7374 79.9858 104.3034 80.1932 C 103.8684 80.3977 103.3134 80.5 102.6364 80.5 H 99.2914 ZM 100.6084 79.3707 H 102.5094 C 103.1394 79.3707 103.5914 79.2486 103.8644 79.0043 C 104.1364 78.7599 104.2734 78.4545 104.2734 78.0881 C 104.2734 77.8125 104.2034 77.5597 104.0644 77.3295 C 103.9254 77.0994 103.7264 76.9162 103.4674 76.7798 C 103.2124 76.6435 102.9084 76.5753 102.5564 76.5753 H 100.6084 V 79.3707 ZM 100.6084 75.5483 H 102.3724 C 102.6684 75.5483 102.9334 75.4915 103.1694 75.3778 C 103.4084 75.2642 103.5974 75.1051 103.7364 74.9006 C 103.8784 74.6932 103.9494 74.4489 103.9494 74.1676 C 103.9494 73.8068 103.8234 73.5043 103.5704 73.2599 C 103.3174 73.0156 102.9294 72.8935 102.4064 72.8935 H 100.6084 V 75.5483 Z" fill="white"/>
</svg>
