<svg width="25" height="24" viewBox="0 0 25 24" fill="none" xmlns="http://www.w3.org/2000/svg">
<path d="M10.7499 2C12.3178 1.99983 13.8534 2.44648 15.1766 3.28763C16.4999 4.12878 17.556 5.3296 18.2213 6.74941C18.8866 8.16922 19.1335 9.74922 18.9331 11.3043C18.7328 12.8594 18.0934 14.3252 17.0899 15.53L22.7799 21.22C22.8786 21.3117 22.9508 21.4283 22.9888 21.5575C23.0268 21.6868 23.0293 21.8239 22.9959 21.9544C22.9625 22.0849 22.8946 22.204 22.7992 22.2992C22.7038 22.3943 22.5845 22.462 22.4539 22.495C22.3235 22.5284 22.1865 22.5261 22.0574 22.4883C21.9282 22.4504 21.8116 22.3785 21.7199 22.28L16.0299 16.59C15.0117 17.4378 13.8044 18.0278 12.5099 18.3103C11.2155 18.5928 9.87204 18.5594 8.59325 18.2128C7.31446 17.8663 6.13794 17.2169 5.16321 16.3195C4.18847 15.4222 3.4442 14.3033 2.99334 13.0574C2.54249 11.8116 2.39831 10.4755 2.57301 9.16216C2.74771 7.84883 3.23615 6.59689 3.99701 5.51224C4.75787 4.42759 5.76876 3.54214 6.94419 2.93079C8.11961 2.31944 9.42499 2.00017 10.7499 2ZM3.99989 10.25C3.99989 11.1364 4.17448 12.0142 4.5137 12.8331C4.85292 13.6521 5.35012 14.3962 5.97692 15.023C6.60371 15.6498 7.34783 16.147 8.16678 16.4862C8.98572 16.8254 9.86347 17 10.7499 17C11.6363 17 12.5141 16.8254 13.333 16.4862C14.152 16.147 14.8961 15.6498 15.5229 15.023C16.1497 14.3962 16.6469 13.6521 16.9861 12.8331C17.3253 12.0142 17.4999 11.1364 17.4999 10.25C17.4999 8.45979 16.7887 6.7429 15.5229 5.47703C14.257 4.21116 12.5401 3.5 10.7499 3.5C8.95968 3.5 7.24279 4.21116 5.97692 5.47703C4.71105 6.7429 3.99989 8.45979 3.99989 10.25Z" fill="white"/>
</svg>
